# AST/ASF file generated using VICON BodyLanguage
# -----------------------------------------------
:version 1.10
:name VICON
:units
  mass 1.0
  length 0.45
  angle deg
:documentation
   .ast/.asf automatically generated from VICON data using
   VICON BodyBuilder and BodyLanguage model FoxedUp or BRILLIANT.MOD
:root
   order TX TY TZ RX RY RZ
   axis XYZ
   position 0 0 0  
   orientation 0 0 0 
:bonedata
  begin
     id 1 
     name lhipjoint
     direction 0.61886 -0.69539 0.365302 
     length 2.20474 
     axis 0 0 0  XYZ
  end
  begin
     id 2 
     name lfemur
     direction 0.34202 -0.939693 0  
     length 6.65149  
     axis 0 0 20  XYZ
    dof rx ry rz
    limits (-160.0 20.0)
           (-70.0 70.0)
           (-60.0 70.0)
  end
  begin
     id 3 
     name ltibia
     direction 0.34202 -0.939693 0   
     length 6.35814   
     axis 0 0 20   XYZ
    dof rx
    limits (-10.0 170.0)
  end
  begin
     id 4 
     name lfoot
     direction 0.101224 -0.278109 0.955201   
     length 2.18766   
     axis -90 7.62852e-016 20   XYZ
    dof rx rz
    limits (-45.0 90.0)
           (-70.0 20.0)
  end
  begin
     id 5 
     name ltoes
     direction 1.53524e-011 -4.21877e-011 1   
     length 1.09206   
     axis -90 7.62852e-016 20   XYZ
    dof rx
    limits (-90.0 20.0)
  end
  begin
     id 6 
     name rhipjoint
     direction -0.600207 -0.708087 0.371972   
     length 2.1652  
     axis 0 0 0  XYZ 
  end
  begin
     id 7 
     name rfemur
     direction -0.34202 -0.939693 0   
     length 6.54691   
     axis 0 0 -20   XYZ
    dof rx ry rz
    limits (-160.0 20.0)
           (-70.0 70.0)
           (-70.0 60.0)
  end
  begin
     id 8 
     name rtibia
     direction -0.34202 -0.939693 0   
     length 6.37474   
     axis 0 0 -20   XYZ
    dof rx
    limits (-10.0 170.0)
 end
 begin
     id 9 
     name rfoot
     direction -0.111266 -0.3057 0.945604   
     length 2.00903  
     axis -90 -7.62852e-016 -20   XYZ
    dof rx rz
    limits (-45.0 90.0)
           (-20.0 70.0)
  end
  begin
     id 10 
     name rtoes
     direction -1.5362e-011 -4.21913e-011 1   
     length 1.00221   
     axis -90 -7.62852e-016 -20   XYZ
    dof rx
    limits (-90.0 20.0)
  end
  begin
     id 11 
     name lowerback
     direction -0.0224561 0.999731 -0.00577314   
     length 2.10409   
     axis 0 0 0   XYZ
    dof rx ry rz
    limits (-20.0 45.0)
           (-30.0 30.0)
           (-30.0 30.0)
  end
  begin
     id 12 
     name upperback
     direction 0.0213126 0.999185 -0.0342817   
     length 2.09783   
     axis 0 0 0   XYZ
    dof rx ry rz
    limits (-20.0 45.0)
           (-30.0 30.0)
           (-30.0 30.0)
  end
  begin
     id 13 
     name thorax
     direction 0.0312356 0.999036 -0.0308451   
     length 2.09788   
     axis 0 0 0   XYZ
    dof rx ry rz
    limits (-20.0 45.0)
           (-30.0 30.0)
           (-30.0 30.0)
  end
  begin
     id 14 
     name lowerneck
     direction -0.0114419 0.996481 0.0830329   
     length 1.38575   
     axis 0 0 0   XYZ
    dof rx ry rz
    limits (-20.0 45.0)
           (-30.0 30.0)
           (-30.0 30.0)
  end
  begin
     id 15 
     name upperneck
     direction -0.0075675 0.996187 -0.0869092   
     length 1.39401   
     axis 0 0 0   XYZ
    dof rx ry rz
    limits (-20.0 45.0)
           (-30.0 30.0)
           (-30.0 30.0)
  end
  begin
     id 16
     name head
     direction -0.00222073 0.999264 -0.0382974  
     length 1.3964  
     axis 0 0 0   XYZ
    dof rx ry rz
    limits (-20.0 45.0)
           (-30.0 30.0)
           (-30.0 30.0)
  end
  begin
     id 17 
     name lclavicle
     direction 0.965962 0.222138 0.132556  
     length 2.81514  
     axis 0 0 0   XYZ
    dof ry rz
    limits (-20.0 10.0)
           (0.0 20.0)
  end
  begin
     id 18 
     name lhumerus
     direction 1 -4.48972e-011 7.03471e-018   
     length 4.47366   
     axis 180 -30 -90   XYZ
    dof rx ry rz
    limits (-60.0 90.0)
           (-90.0 90.0)
           (-90.0 90.0)
  end
  begin
     id 19
     name lradius
     direction 1 -4.48951e-011 -6.22192e-028   
     length 3.19948   
     axis 180 -30 -90   XYZ
    dof rx
    limits (-10.0 170.0)
  end
  begin
     id 20
     name lwrist
     direction 1 -4.48967e-011 -1.24264e-027   
     length 1.59974   
     axis 1.40095e-015 90 90   XYZ
    dof ry
    limits (-180.0 0.0)
 end
  begin
     id 21 
     name lhand
     direction 1 -4.4897e-011 -2.48528e-027   
     length 0.492667   
     axis 1.58582e-015 90 90   XYZ
    dof rx rz
    limits (-90.0 90.0)
           (-45.0 45.0)
  end
  begin
     id 22 
     name lfingers
     direction 1 -4.48996e-011 -4.97056e-027   
     length 0.397201   
     axis 3.17164e-015 90 90   XYZ
    dof rx
    limits (0.0 90.0)
  end
  begin
     id 23
     name lthumb
     direction 0.707107 -6.34981e-011 0.707107   
     length 0.570303   
     axis -90 45 2.85299e-015   XYZ
    dof rx rz
    limits (-45.0 45.0)
           (-45.0 45.0)
  end
  begin
     id 24 
     name rclavicle
     direction -0.961164 0.229034 0.153972   
     length 3.09348  
     axis 0 0 0   XYZ 
    dof ry rz
    limits (-10.0 20.0)
           (-20.0 0.0)
  end
  begin
     id 25 
     name rhumerus
     direction -1 -4.48971e-011 -9.06263e-028  
     length 4.3269   
     axis 180 30 90   XYZ
    dof rx ry rz
    limits (-90.0 60.0)
           (-90.0 90.0)
           (-90.0 90.0)
  end
  begin
     id 26 
     name rradius
     direction -1 -4.48953e-011 1.44659e-027   
     length 3.1896   
     axis 180 30 90   XYZ
    dof rx
    limits (-10.0 170.0)
  end
  begin
     id 27 
     name rwrist
     direction -1 -4.48988e-011 -1.24264e-027   
     length 1.5948   
     axis 1.40095e-015 -90 -90   XYZ
    dof ry
    limits (-180.0 0.0)
  end
  begin
     id 28
     name rhand
     direction -1 -4.49033e-011 -2.48528e-027   
     length 0.464496   
     axis 1.58582e-015 -90 -90   XYZ
    dof rx rz
    limits (-90.0 90.0)
           (-45.0 45.0)
  end
  begin
     id 29
     name rfingers
     direction -1 -4.48905e-011 -4.97056e-027   
     length 0.374489   
     axis 3.17164e-015 -90 -90   XYZ
    dof rx
    limits (0.0 90.0)
  end
  begin
     id 30
     name rthumb
     direction -0.707107 -6.34909e-011 0.707107   
     length 0.537693   
     axis -90 -45 -2.85299e-015   XYZ
    dof rx rz
    limits (-45.0 45.0)
           (-45.0 45.0)
  end
:hierarchy
  begin
    root lhipjoint rhipjoint lowerback
    lhipjoint lfemur
    lfemur ltibia
    ltibia lfoot
    lfoot ltoes
    rhipjoint rfemur
    rfemur rtibia
    rtibia rfoot
    rfoot rtoes
    lowerback upperback
    upperback thorax
    thorax lowerneck lclavicle rclavicle
    lowerneck upperneck
    upperneck head
    lclavicle lhumerus
    lhumerus lradius
    lradius lwrist
    lwrist lhand lthumb
    lhand lfingers
    rclavicle rhumerus
    rhumerus rradius
    rradius rwrist
    rwrist rhand rthumb
    rhand rfingers
  end

#!OML:ASF G:\acrobat\cartwheel_test 2\Patient 1\Session 2\acrobat4.ASF
:FULLY-SPECIFIED
:DEGREES
17
root 9.87474 15.1644 19.3682 -169.541 -18.7636 -180.543
lowerback -3.52602 2.5328 -2.51694
upperback 1.88902 3.50854 -0.28284
thorax 3.78977 1.67863 1.34892
lowerneck -3.76712 -4.1377 0.513645
upperneck 18.377 -7.59894 4.83971
head 6.37358 -3.65777 0.904164
rclavicle 6.8705e-015 1.47349e-014
rhumerus -39.9471 8.49313 -86.1255
rradius 87.7599
rwrist 12.1455
rhand -20.5527 -22.011
rfingers 7.12502
rthumb 5.80617 -51.9114
lclavicle 6.8705e-015 1.47349e-014
lhumerus -49.9717 -32.0817 97.7438
lradius 97.0028
lwrist 1.489
lhand -17.7927 -1.1322
lfingers 7.12502
lthumb 8.47035 28.6779
rfemur -41.4092 1.26808 18.5813
rtibia 46.0738
rfoot -16.0136 -6.66294
rtoes -7.62774
lfemur -12.4437 1.12258 -27.5255
ltibia 34.6026
lfoot -30.178 18.9464
ltoes -12.7328
18
root 9.87407 15.1774 19.3405 -169.519 -18.8998 -180.535
lowerback -3.44322 2.26709 -2.46826
upperback 2.07414 3.14136 -0.0289789
thorax 3.9376 1.48937 1.56126
lowerneck -3.68579 -4.30341 0.251808
upperneck 18.3754 -7.76676 4.64489
head 6.36379 -3.77072 0.876516
rclavicle 1.39149e-014 3.37934e-015
rhumerus -39.8392 8.2295 -85.5681
rradius 88.2644
rwrist 11.7753
rhand -20.7119 -22.1609
rfingers 7.12502
rthumb 5.65253 -52.0655
lclavicle 1.39149e-014 3.37934e-015
lhumerus -50.3215 -32.1658 97.3188
lradius 97.1218
lwrist 1.77303
lhand -18.2715 -0.728021
lfingers 7.12502
lthumb 8.0083 29.1003
rfemur -41.507 2.52181 17.8342
rtibia 45.0591
rfoot -17.4172 -8.94683
rtoes -8.87337
lfemur -12.2067 1.48393 -27.4167
ltibia 34.2591
lfoot -30.0438 18.513
ltoes -12.5565
19
root 9.87502 15.1858 19.3106 -169.494 -18.9931 -180.551
lowerback -3.27052 2.0554 -2.34931
upperback 2.24871 2.83977 0.165054
thorax 4.02963 1.33558 1.67272
lowerneck -3.72452 -4.40569 0.0682781
upperneck 18.3941 -7.84898 4.43334
head 6.37594 -3.83354 0.83312
rclavicle 4.3832e-014 -6.36111e-015
rhumerus -39.7913 7.96403 -85.0679
rradius 88.7209
rwrist 11.5646
rhand -21.4652 -22.5749
rfingers 7.12502
rthumb 4.92514 -52.4977
lclavicle 4.3832e-014 -6.36111e-015
lhumerus -50.5554 -32.9763 96.6997
lradius 97.3335
lwrist 2.2472
lhand -18.5387 0.0742411
lfingers 7.12502
lthumb 7.7504 29.9122
rfemur -41.6558 4.08532 16.9213
rtibia 44.0362
rfoot -19.2428 -11.763
rtoes -9.8859
lfemur -11.9319 1.64438 -27.339
ltibia 33.8691
lfoot -30.002 18.1633
ltoes -11.9404
20
root 9.87395 15.1981 19.2804 -169.443 -19.059 -180.546
lowerback -2.93215 1.90935 -2.07469
upperback 2.31869 2.61591 0.29051
thorax 3.92632 1.22994 1.62282
lowerneck -3.77021 -4.45594 -0.108968
upperneck 18.4086 -7.88398 4.34593
head 6.39187 -3.86514 0.830624
rclavicle 5.13858e-014 -3.18055e-015
rhumerus -39.9274 7.7459 -84.5529
rradius 89.2558
rwrist 11.3989
rhand -22.2599 -23.1486
rfingers 7.12502
rthumb 4.15779 -53.0877
lclavicle 5.13858e-014 -3.18055e-015
lhumerus -50.9508 -34.8038 95.8404
lradius 97.7637
lwrist 3.00074
lhand -18.9112 0.651875
lfingers 7.12502
lthumb 7.39086 30.5028
rfemur -41.8701 5.5212 16.0841
rtibia 43.1538
rfoot -21.0942 -14.2287
rtoes -9.23788
lfemur -11.6908 1.83746 -27.2492
ltibia 33.4883
lfoot -29.8979 17.9353
ltoes -12.1894
21
root 9.87211 15.208 19.2523 -169.247 -18.8186 -180.645
lowerback -2.61026 1.85515 -1.97322
upperback 2.35976 2.52425 0.430168
thorax 3.78839 1.18564 1.69309
lowerneck -3.73543 -4.45922 -0.247807
upperneck 18.2523 -7.81263 4.17092
head 6.33149 -3.849 0.807247
rclavicle -1.22253e-014 3.18055e-015
rhumerus -40.0161 8.01227 -83.8623
rradius 89.7103
rwrist 11.0049
rhand -21.8295 -23.2506
rfingers 7.12502
rthumb 4.57343 -53.1812
lclavicle -1.22253e-014 3.18055e-015
lhumerus -51.2599 -37.5578 94.57
lradius 98.3732
lwrist 4.12151
lhand -18.5018 0.851503
lfingers 7.12502
lthumb 7.78606 30.6881
rfemur -42.3197 6.43427 15.3814
rtibia 42.4614
rfoot -22.242 -15.724
rtoes -8.87761
lfemur -11.598 2.11981 -27.3544
ltibia 33.1601
lfoot -29.7562 17.9717
ltoes -12.7531
